<!DOCTYPE svg PUBLIC "-//W3C//DTD SVG 1.1//EN" "http://www.w3.org/Graphics/SVG/1.1/DTD/svg11.dtd">
<!-- Uploaded to: SVG Repo, www.svgrepo.com, Transformed by: SVG Repo Mixer Tools -->
<svg width="165px" height="165px" viewBox="-2.4 -2.4 28.80 28.80" fill="none" xmlns="http://www.w3.org/2000/svg" transform="matrix(-1, 0, 0, 1, 0, 0)rotate(0)">
<g id="SVGRepo_bgCarrier" stroke-width="0" transform="translate(0.4800000000000004,0.4800000000000004), scale(0.96)">
<path transform="translate(-2.4, -2.4), scale(1.7999999999999998)" fill="#3276c3" d="M9.166.33a2.25 2.25 0 00-2.332 0l-5.25 3.182A2.25 2.25 0 00.5 5.436v5.128a2.25 2.25 0 001.084 1.924l5.25 3.182a2.25 2.25 0 002.332 0l5.25-3.182a2.25 2.25 0 001.084-1.924V5.436a2.25 2.25 0 00-1.084-1.924L9.166.33z" strokewidth="0"/>
</g>
<g id="SVGRepo_tracerCarrier" stroke-linecap="round" stroke-linejoin="round" stroke="#9f5050" stroke-width="0.288"/>
<g id="SVGRepo_iconCarrier"> <path d="M12 8.4C13.4912 8.4 14.7 7.19117 14.7 5.7C14.7 4.20883 13.4912 3 12 3C10.5088 3 9.3 4.20883 9.3 5.7C9.3 7.19117 10.5088 8.4 12 8.4ZM12 8.4V20.9999M12 20.9999C9.61305 20.9999 7.32387 20.0518 5.63604 18.364C3.94821 16.6761 3 14.3869 3 12H5M12 20.9999C14.3869 20.9999 16.6761 20.0518 18.364 18.364C20.0518 16.6761 21 14.3869 21 12H19" stroke="#70dd27" stroke-width="2" stroke-linecap="round" stroke-linejoin="round"/> </g>
</svg>